# xmcd
#
# Track frame offsets: 
#        150
#        8797
#        20328
#        30555
#        40528
#        50890
#        61624
#        72322
#        83169
#        92248
#        111597
#        121032
#        136684
#        146435
#        156432
#        173634
#        184422
#        195918
#        207393
#        224702
#        237305
#
# Disc length: 3338 seconds
#
# Revision: 0
# Processed by: cddbd v1.5.2PL0 Copyright (c) Steve Scherf et al.
# Submitted via: ExactAudioCopy v0.99pb5
#
DISCID=260d0815
DTITLE=Дин Рид - Поет Дин Рид
DYEAR=2009
DGENRE=Rock and Roll
TTITLE0=Jericho
TTITLE1=La Bamba
TTITLE2=Keep Searching
TTITLE3=Elizabeth
TTITLE4=Girl Happy
TTITLE5=Sugar Pie
TTITLE6=Our Love Will Always Be
TTITLE7=Hawa Nagila
TTITLE8=Our Summer Romance
TTITLE9=The Arms Of My Love
TTITLE10=Annabelle
TTITLE11=El Valle Del Arco Iris
TTITLE12=Female Hercules
TTITLE13=Bella Ciao!
TTITLE14=That I Saw
TTITLE15=I Ain't Got You
TTITLE16=Happy Old Sun
TTITLE17=Kansas City
TTITLE18=We'll Say Yes
TTITLE19=Be Bop
TTITLE20=Words For Julie
EXTD=
EXTT0=
EXTT1=
EXTT2=
EXTT3=
EXTT4=
EXTT5=
EXTT6=
EXTT7=
EXTT8=
EXTT9=
EXTT10=
EXTT11=
EXTT12=
EXTT13=
EXTT14=
EXTT15=
EXTT16=
EXTT17=
EXTT18=
EXTT19=
EXTT20=
PLAYORDER=
